<mxfile host="Electron" modified="2023-11-09T21:57:06.911Z" agent="Mozilla/5.0 (Windows NT 10.0; Win64; x64) AppleWebKit/537.36 (KHTML, like Gecko) draw.io/22.0.3 Chrome/114.0.5735.289 Electron/25.8.4 Safari/537.36" etag="QzWAvLioCoS6dBQM8yxu" version="22.0.3" type="device">
  <diagram name="Page-1" id="q4UrDDv0PWTNzyDM_Sgz">
    <mxGraphModel dx="1400" dy="828" grid="1" gridSize="10" guides="1" tooltips="1" connect="1" arrows="1" fold="1" page="1" pageScale="1" pageWidth="850" pageHeight="1100" background="none" math="0" shadow="1">
      <root>
        <mxCell id="0" />
        <mxCell id="1" parent="0" />
        <mxCell id="K8a-S57NC9AnjyNX4csb-3" value="User" style="swimlane;fontStyle=1;childLayout=stackLayout;horizontal=1;startSize=30;horizontalStack=0;resizeParent=1;resizeParentMax=0;resizeLast=0;collapsible=1;marginBottom=0;whiteSpace=wrap;html=1;fillColor=#dae8fc;strokeColor=#6c8ebf;fontSize=18;" vertex="1" parent="1">
          <mxGeometry x="390" y="220" width="140" height="330" as="geometry" />
        </mxCell>
        <mxCell id="K8a-S57NC9AnjyNX4csb-4" value="Auth_ID" style="text;strokeColor=none;fillColor=default;align=left;verticalAlign=middle;spacingLeft=4;spacingRight=4;overflow=hidden;points=[[0,0.5],[1,0.5]];portConstraint=eastwest;rotatable=0;whiteSpace=wrap;html=1;rounded=0;glass=0;shadow=0;fontStyle=0;fontSize=15;fontFamily=Times New Roman;" vertex="1" parent="K8a-S57NC9AnjyNX4csb-3">
          <mxGeometry y="30" width="140" height="30" as="geometry" />
        </mxCell>
        <mxCell id="K8a-S57NC9AnjyNX4csb-5" value="User_ID" style="text;strokeColor=none;fillColor=default;align=left;verticalAlign=middle;spacingLeft=4;spacingRight=4;overflow=hidden;points=[[0,0.5],[1,0.5]];portConstraint=eastwest;rotatable=0;whiteSpace=wrap;html=1;fontStyle=0;fontSize=15;fontFamily=Times New Roman;" vertex="1" parent="K8a-S57NC9AnjyNX4csb-3">
          <mxGeometry y="60" width="140" height="30" as="geometry" />
        </mxCell>
        <mxCell id="K8a-S57NC9AnjyNX4csb-6" value="firstName" style="text;strokeColor=none;fillColor=default;align=left;verticalAlign=middle;spacingLeft=4;spacingRight=4;overflow=hidden;points=[[0,0.5],[1,0.5]];portConstraint=eastwest;rotatable=0;whiteSpace=wrap;html=1;fontStyle=0;fontSize=15;fontFamily=Times New Roman;" vertex="1" parent="K8a-S57NC9AnjyNX4csb-3">
          <mxGeometry y="90" width="140" height="30" as="geometry" />
        </mxCell>
        <mxCell id="K8a-S57NC9AnjyNX4csb-15" value="lastName" style="text;strokeColor=none;fillColor=default;align=left;verticalAlign=middle;spacingLeft=4;spacingRight=4;overflow=hidden;points=[[0,0.5],[1,0.5]];portConstraint=eastwest;rotatable=0;whiteSpace=wrap;html=1;fontStyle=0;fontSize=15;fontFamily=Times New Roman;" vertex="1" parent="K8a-S57NC9AnjyNX4csb-3">
          <mxGeometry y="120" width="140" height="30" as="geometry" />
        </mxCell>
        <mxCell id="K8a-S57NC9AnjyNX4csb-46" value="role" style="text;strokeColor=none;fillColor=default;align=left;verticalAlign=middle;spacingLeft=4;spacingRight=4;overflow=hidden;points=[[0,0.5],[1,0.5]];portConstraint=eastwest;rotatable=0;whiteSpace=wrap;html=1;fontStyle=0;fontSize=15;fontFamily=Times New Roman;" vertex="1" parent="K8a-S57NC9AnjyNX4csb-3">
          <mxGeometry y="150" width="140" height="30" as="geometry" />
        </mxCell>
        <mxCell id="K8a-S57NC9AnjyNX4csb-47" value="photo" style="text;strokeColor=none;fillColor=default;align=left;verticalAlign=middle;spacingLeft=4;spacingRight=4;overflow=hidden;points=[[0,0.5],[1,0.5]];portConstraint=eastwest;rotatable=0;whiteSpace=wrap;html=1;fontStyle=0;fontSize=15;fontFamily=Times New Roman;" vertex="1" parent="K8a-S57NC9AnjyNX4csb-3">
          <mxGeometry y="180" width="140" height="30" as="geometry" />
        </mxCell>
        <mxCell id="K8a-S57NC9AnjyNX4csb-48" value="country" style="text;strokeColor=none;fillColor=default;align=left;verticalAlign=middle;spacingLeft=4;spacingRight=4;overflow=hidden;points=[[0,0.5],[1,0.5]];portConstraint=eastwest;rotatable=0;whiteSpace=wrap;html=1;fontStyle=0;fontSize=15;fontFamily=Times New Roman;" vertex="1" parent="K8a-S57NC9AnjyNX4csb-3">
          <mxGeometry y="210" width="140" height="30" as="geometry" />
        </mxCell>
        <mxCell id="K8a-S57NC9AnjyNX4csb-49" value="companyWorkingFor" style="text;strokeColor=none;fillColor=default;align=left;verticalAlign=middle;spacingLeft=4;spacingRight=4;overflow=hidden;points=[[0,0.5],[1,0.5]];portConstraint=eastwest;rotatable=0;whiteSpace=wrap;html=1;fontStyle=0;fontSize=15;fontFamily=Times New Roman;" vertex="1" parent="K8a-S57NC9AnjyNX4csb-3">
          <mxGeometry y="240" width="140" height="30" as="geometry" />
        </mxCell>
        <mxCell id="K8a-S57NC9AnjyNX4csb-50" value="school" style="text;strokeColor=none;fillColor=default;align=left;verticalAlign=middle;spacingLeft=4;spacingRight=4;overflow=hidden;points=[[0,0.5],[1,0.5]];portConstraint=eastwest;rotatable=0;whiteSpace=wrap;html=1;fontStyle=0;fontSize=15;fontFamily=Times New Roman;" vertex="1" parent="K8a-S57NC9AnjyNX4csb-3">
          <mxGeometry y="270" width="140" height="30" as="geometry" />
        </mxCell>
        <mxCell id="K8a-S57NC9AnjyNX4csb-61" value="interests" style="text;strokeColor=none;fillColor=default;align=left;verticalAlign=middle;spacingLeft=4;spacingRight=4;overflow=hidden;points=[[0,0.5],[1,0.5]];portConstraint=eastwest;rotatable=0;whiteSpace=wrap;html=1;fontStyle=0;fontSize=15;fontFamily=Times New Roman;" vertex="1" parent="K8a-S57NC9AnjyNX4csb-3">
          <mxGeometry y="300" width="140" height="30" as="geometry" />
        </mxCell>
        <mxCell id="K8a-S57NC9AnjyNX4csb-16" value="Auth" style="swimlane;fontStyle=1;childLayout=stackLayout;horizontal=1;startSize=30;horizontalStack=0;resizeParent=1;resizeParentMax=0;resizeLast=0;collapsible=1;marginBottom=0;whiteSpace=wrap;html=1;fillColor=#dae8fc;strokeColor=#6c8ebf;fontSize=18;" vertex="1" parent="1">
          <mxGeometry x="390" y="40" width="140" height="150" as="geometry" />
        </mxCell>
        <mxCell id="K8a-S57NC9AnjyNX4csb-17" value="Auth_ID" style="text;strokeColor=none;fillColor=default;align=left;verticalAlign=middle;spacingLeft=4;spacingRight=4;overflow=hidden;points=[[0,0.5],[1,0.5]];portConstraint=eastwest;rotatable=0;whiteSpace=wrap;html=1;rounded=0;glass=0;shadow=0;fontStyle=0;fontSize=15;fontFamily=Times New Roman;" vertex="1" parent="K8a-S57NC9AnjyNX4csb-16">
          <mxGeometry y="30" width="140" height="30" as="geometry" />
        </mxCell>
        <mxCell id="K8a-S57NC9AnjyNX4csb-18" value="email" style="text;strokeColor=none;fillColor=default;align=left;verticalAlign=middle;spacingLeft=4;spacingRight=4;overflow=hidden;points=[[0,0.5],[1,0.5]];portConstraint=eastwest;rotatable=0;whiteSpace=wrap;html=1;fontStyle=0;fontSize=15;fontFamily=Times New Roman;" vertex="1" parent="K8a-S57NC9AnjyNX4csb-16">
          <mxGeometry y="60" width="140" height="30" as="geometry" />
        </mxCell>
        <mxCell id="K8a-S57NC9AnjyNX4csb-19" value="password" style="text;strokeColor=none;fillColor=default;align=left;verticalAlign=middle;spacingLeft=4;spacingRight=4;overflow=hidden;points=[[0,0.5],[1,0.5]];portConstraint=eastwest;rotatable=0;whiteSpace=wrap;html=1;fontStyle=0;fontSize=15;fontFamily=Times New Roman;" vertex="1" parent="K8a-S57NC9AnjyNX4csb-16">
          <mxGeometry y="90" width="140" height="30" as="geometry" />
        </mxCell>
        <mxCell id="K8a-S57NC9AnjyNX4csb-20" value="username" style="text;strokeColor=none;fillColor=default;align=left;verticalAlign=middle;spacingLeft=4;spacingRight=4;overflow=hidden;points=[[0,0.5],[1,0.5]];portConstraint=eastwest;rotatable=0;whiteSpace=wrap;html=1;fontStyle=0;fontSize=15;fontFamily=Times New Roman;" vertex="1" parent="K8a-S57NC9AnjyNX4csb-16">
          <mxGeometry y="120" width="140" height="30" as="geometry" />
        </mxCell>
        <mxCell id="K8a-S57NC9AnjyNX4csb-21" value="Review" style="swimlane;fontStyle=1;childLayout=stackLayout;horizontal=1;startSize=30;horizontalStack=0;resizeParent=1;resizeParentMax=0;resizeLast=0;collapsible=1;marginBottom=0;whiteSpace=wrap;html=1;fillColor=#dae8fc;strokeColor=#6c8ebf;fontSize=18;" vertex="1" parent="1">
          <mxGeometry x="590" y="270" width="140" height="180" as="geometry" />
        </mxCell>
        <mxCell id="K8a-S57NC9AnjyNX4csb-22" value="Review_ID" style="text;strokeColor=none;fillColor=default;align=left;verticalAlign=middle;spacingLeft=4;spacingRight=4;overflow=hidden;points=[[0,0.5],[1,0.5]];portConstraint=eastwest;rotatable=0;whiteSpace=wrap;html=1;rounded=0;glass=0;shadow=0;fontStyle=0;fontSize=15;fontFamily=Times New Roman;" vertex="1" parent="K8a-S57NC9AnjyNX4csb-21">
          <mxGeometry y="30" width="140" height="30" as="geometry" />
        </mxCell>
        <mxCell id="K8a-S57NC9AnjyNX4csb-23" value="mentor_ID" style="text;strokeColor=none;fillColor=default;align=left;verticalAlign=middle;spacingLeft=4;spacingRight=4;overflow=hidden;points=[[0,0.5],[1,0.5]];portConstraint=eastwest;rotatable=0;whiteSpace=wrap;html=1;fontStyle=0;fontSize=15;fontFamily=Times New Roman;" vertex="1" parent="K8a-S57NC9AnjyNX4csb-21">
          <mxGeometry y="60" width="140" height="30" as="geometry" />
        </mxCell>
        <mxCell id="K8a-S57NC9AnjyNX4csb-24" value="mentee_ID" style="text;strokeColor=none;fillColor=default;align=left;verticalAlign=middle;spacingLeft=4;spacingRight=4;overflow=hidden;points=[[0,0.5],[1,0.5]];portConstraint=eastwest;rotatable=0;whiteSpace=wrap;html=1;fontStyle=0;fontSize=15;fontFamily=Times New Roman;" vertex="1" parent="K8a-S57NC9AnjyNX4csb-21">
          <mxGeometry y="90" width="140" height="30" as="geometry" />
        </mxCell>
        <mxCell id="K8a-S57NC9AnjyNX4csb-25" value="review" style="text;strokeColor=none;fillColor=default;align=left;verticalAlign=middle;spacingLeft=4;spacingRight=4;overflow=hidden;points=[[0,0.5],[1,0.5]];portConstraint=eastwest;rotatable=0;whiteSpace=wrap;html=1;fontStyle=0;fontSize=15;fontFamily=Times New Roman;" vertex="1" parent="K8a-S57NC9AnjyNX4csb-21">
          <mxGeometry y="120" width="140" height="30" as="geometry" />
        </mxCell>
        <mxCell id="K8a-S57NC9AnjyNX4csb-63" value="rating" style="text;strokeColor=none;fillColor=default;align=left;verticalAlign=middle;spacingLeft=4;spacingRight=4;overflow=hidden;points=[[0,0.5],[1,0.5]];portConstraint=eastwest;rotatable=0;whiteSpace=wrap;html=1;fontStyle=0;fontSize=15;fontFamily=Times New Roman;" vertex="1" parent="K8a-S57NC9AnjyNX4csb-21">
          <mxGeometry y="150" width="140" height="30" as="geometry" />
        </mxCell>
        <mxCell id="K8a-S57NC9AnjyNX4csb-26" value="Comment" style="swimlane;fontStyle=1;childLayout=stackLayout;horizontal=1;startSize=30;horizontalStack=0;resizeParent=1;resizeParentMax=0;resizeLast=0;collapsible=1;marginBottom=0;whiteSpace=wrap;html=1;fillColor=#dae8fc;strokeColor=#6c8ebf;fontSize=18;" vertex="1" parent="1">
          <mxGeometry x="140" y="40" width="140" height="150" as="geometry" />
        </mxCell>
        <mxCell id="K8a-S57NC9AnjyNX4csb-30" value="Comment_ID" style="text;strokeColor=none;fillColor=default;align=left;verticalAlign=middle;spacingLeft=4;spacingRight=4;overflow=hidden;points=[[0,0.5],[1,0.5]];portConstraint=eastwest;rotatable=0;whiteSpace=wrap;html=1;fontStyle=0;fontSize=15;fontFamily=Times New Roman;" vertex="1" parent="K8a-S57NC9AnjyNX4csb-26">
          <mxGeometry y="30" width="140" height="30" as="geometry" />
        </mxCell>
        <mxCell id="K8a-S57NC9AnjyNX4csb-27" value="User_ID" style="text;strokeColor=none;fillColor=default;align=left;verticalAlign=middle;spacingLeft=4;spacingRight=4;overflow=hidden;points=[[0,0.5],[1,0.5]];portConstraint=eastwest;rotatable=0;whiteSpace=wrap;html=1;rounded=0;glass=0;shadow=0;fontStyle=0;fontSize=15;fontFamily=Times New Roman;" vertex="1" parent="K8a-S57NC9AnjyNX4csb-26">
          <mxGeometry y="60" width="140" height="30" as="geometry" />
        </mxCell>
        <mxCell id="K8a-S57NC9AnjyNX4csb-28" value="Post_ID" style="text;strokeColor=none;fillColor=default;align=left;verticalAlign=middle;spacingLeft=4;spacingRight=4;overflow=hidden;points=[[0,0.5],[1,0.5]];portConstraint=eastwest;rotatable=0;whiteSpace=wrap;html=1;fontStyle=0;fontSize=15;fontFamily=Times New Roman;" vertex="1" parent="K8a-S57NC9AnjyNX4csb-26">
          <mxGeometry y="90" width="140" height="30" as="geometry" />
        </mxCell>
        <mxCell id="K8a-S57NC9AnjyNX4csb-29" value="comment" style="text;strokeColor=none;fillColor=default;align=left;verticalAlign=middle;spacingLeft=4;spacingRight=4;overflow=hidden;points=[[0,0.5],[1,0.5]];portConstraint=eastwest;rotatable=0;whiteSpace=wrap;html=1;fontStyle=0;fontSize=15;fontFamily=Times New Roman;" vertex="1" parent="K8a-S57NC9AnjyNX4csb-26">
          <mxGeometry y="120" width="140" height="30" as="geometry" />
        </mxCell>
        <mxCell id="K8a-S57NC9AnjyNX4csb-31" value="Post" style="swimlane;fontStyle=1;childLayout=stackLayout;horizontal=1;startSize=30;horizontalStack=0;resizeParent=1;resizeParentMax=0;resizeLast=0;collapsible=1;marginBottom=0;whiteSpace=wrap;html=1;fillColor=#dae8fc;strokeColor=#6c8ebf;fontSize=18;" vertex="1" parent="1">
          <mxGeometry x="140" y="260" width="140" height="210" as="geometry" />
        </mxCell>
        <mxCell id="K8a-S57NC9AnjyNX4csb-64" value="Post_ID" style="text;strokeColor=none;fillColor=default;align=left;verticalAlign=middle;spacingLeft=4;spacingRight=4;overflow=hidden;points=[[0,0.5],[1,0.5]];portConstraint=eastwest;rotatable=0;whiteSpace=wrap;html=1;fontStyle=0;fontSize=15;fontFamily=Times New Roman;" vertex="1" parent="K8a-S57NC9AnjyNX4csb-31">
          <mxGeometry y="30" width="140" height="30" as="geometry" />
        </mxCell>
        <mxCell id="K8a-S57NC9AnjyNX4csb-32" value="User_ID" style="text;strokeColor=none;fillColor=default;align=left;verticalAlign=middle;spacingLeft=4;spacingRight=4;overflow=hidden;points=[[0,0.5],[1,0.5]];portConstraint=eastwest;rotatable=0;whiteSpace=wrap;html=1;rounded=0;glass=0;shadow=0;fontStyle=0;fontSize=15;fontFamily=Times New Roman;" vertex="1" parent="K8a-S57NC9AnjyNX4csb-31">
          <mxGeometry y="60" width="140" height="30" as="geometry" />
        </mxCell>
        <mxCell id="K8a-S57NC9AnjyNX4csb-33" value="content" style="text;strokeColor=none;fillColor=default;align=left;verticalAlign=middle;spacingLeft=4;spacingRight=4;overflow=hidden;points=[[0,0.5],[1,0.5]];portConstraint=eastwest;rotatable=0;whiteSpace=wrap;html=1;fontStyle=0;fontSize=15;fontFamily=Times New Roman;" vertex="1" parent="K8a-S57NC9AnjyNX4csb-31">
          <mxGeometry y="90" width="140" height="30" as="geometry" />
        </mxCell>
        <mxCell id="K8a-S57NC9AnjyNX4csb-34" value="bgColor" style="text;strokeColor=none;fillColor=default;align=left;verticalAlign=middle;spacingLeft=4;spacingRight=4;overflow=hidden;points=[[0,0.5],[1,0.5]];portConstraint=eastwest;rotatable=0;whiteSpace=wrap;html=1;fontStyle=0;fontSize=15;fontFamily=Times New Roman;" vertex="1" parent="K8a-S57NC9AnjyNX4csb-31">
          <mxGeometry y="120" width="140" height="30" as="geometry" />
        </mxCell>
        <mxCell id="K8a-S57NC9AnjyNX4csb-35" value="privacy" style="text;strokeColor=none;fillColor=default;align=left;verticalAlign=middle;spacingLeft=4;spacingRight=4;overflow=hidden;points=[[0,0.5],[1,0.5]];portConstraint=eastwest;rotatable=0;whiteSpace=wrap;html=1;fontStyle=0;fontSize=15;fontFamily=Times New Roman;" vertex="1" parent="K8a-S57NC9AnjyNX4csb-31">
          <mxGeometry y="150" width="140" height="30" as="geometry" />
        </mxCell>
        <mxCell id="K8a-S57NC9AnjyNX4csb-62" value="image" style="text;strokeColor=none;fillColor=default;align=left;verticalAlign=middle;spacingLeft=4;spacingRight=4;overflow=hidden;points=[[0,0.5],[1,0.5]];portConstraint=eastwest;rotatable=0;whiteSpace=wrap;html=1;fontStyle=0;fontSize=15;fontFamily=Times New Roman;" vertex="1" parent="K8a-S57NC9AnjyNX4csb-31">
          <mxGeometry y="180" width="140" height="30" as="geometry" />
        </mxCell>
        <mxCell id="K8a-S57NC9AnjyNX4csb-36" value="Reaction" style="swimlane;fontStyle=1;childLayout=stackLayout;horizontal=1;startSize=30;horizontalStack=0;resizeParent=1;resizeParentMax=0;resizeLast=0;collapsible=1;marginBottom=0;whiteSpace=wrap;html=1;fillColor=#dae8fc;strokeColor=#6c8ebf;fontSize=18;" vertex="1" parent="1">
          <mxGeometry x="140" y="520" width="140" height="120" as="geometry" />
        </mxCell>
        <mxCell id="K8a-S57NC9AnjyNX4csb-37" value="User_ID" style="text;strokeColor=none;fillColor=default;align=left;verticalAlign=middle;spacingLeft=4;spacingRight=4;overflow=hidden;points=[[0,0.5],[1,0.5]];portConstraint=eastwest;rotatable=0;whiteSpace=wrap;html=1;rounded=0;glass=0;shadow=0;fontStyle=0;fontSize=15;fontFamily=Times New Roman;" vertex="1" parent="K8a-S57NC9AnjyNX4csb-36">
          <mxGeometry y="30" width="140" height="30" as="geometry" />
        </mxCell>
        <mxCell id="K8a-S57NC9AnjyNX4csb-38" value="Post_ID" style="text;strokeColor=none;fillColor=default;align=left;verticalAlign=middle;spacingLeft=4;spacingRight=4;overflow=hidden;points=[[0,0.5],[1,0.5]];portConstraint=eastwest;rotatable=0;whiteSpace=wrap;html=1;fontStyle=0;fontSize=15;fontFamily=Times New Roman;" vertex="1" parent="K8a-S57NC9AnjyNX4csb-36">
          <mxGeometry y="60" width="140" height="30" as="geometry" />
        </mxCell>
        <mxCell id="K8a-S57NC9AnjyNX4csb-39" value="reaction" style="text;strokeColor=none;fillColor=default;align=left;verticalAlign=middle;spacingLeft=4;spacingRight=4;overflow=hidden;points=[[0,0.5],[1,0.5]];portConstraint=eastwest;rotatable=0;whiteSpace=wrap;html=1;fontStyle=0;fontSize=15;fontFamily=Times New Roman;" vertex="1" parent="K8a-S57NC9AnjyNX4csb-36">
          <mxGeometry y="90" width="140" height="30" as="geometry" />
        </mxCell>
        <mxCell id="K8a-S57NC9AnjyNX4csb-41" value="Reservation" style="swimlane;fontStyle=1;childLayout=stackLayout;horizontal=1;startSize=30;horizontalStack=0;resizeParent=1;resizeParentMax=0;resizeLast=0;collapsible=1;marginBottom=0;whiteSpace=wrap;html=1;fillColor=#dae8fc;strokeColor=#6c8ebf;fontSize=18;" vertex="1" parent="1">
          <mxGeometry x="390" y="590" width="140" height="180" as="geometry" />
        </mxCell>
        <mxCell id="K8a-S57NC9AnjyNX4csb-42" value="Reservation_ID" style="text;strokeColor=none;fillColor=default;align=left;verticalAlign=middle;spacingLeft=4;spacingRight=4;overflow=hidden;points=[[0,0.5],[1,0.5]];portConstraint=eastwest;rotatable=0;whiteSpace=wrap;html=1;rounded=0;glass=0;shadow=0;fontStyle=0;fontSize=15;fontFamily=Times New Roman;" vertex="1" parent="K8a-S57NC9AnjyNX4csb-41">
          <mxGeometry y="30" width="140" height="30" as="geometry" />
        </mxCell>
        <mxCell id="K8a-S57NC9AnjyNX4csb-43" value="mentor_ID" style="text;strokeColor=none;fillColor=default;align=left;verticalAlign=middle;spacingLeft=4;spacingRight=4;overflow=hidden;points=[[0,0.5],[1,0.5]];portConstraint=eastwest;rotatable=0;whiteSpace=wrap;html=1;fontStyle=0;fontSize=15;fontFamily=Times New Roman;" vertex="1" parent="K8a-S57NC9AnjyNX4csb-41">
          <mxGeometry y="60" width="140" height="30" as="geometry" />
        </mxCell>
        <mxCell id="K8a-S57NC9AnjyNX4csb-44" value="mentee_ID" style="text;strokeColor=none;fillColor=default;align=left;verticalAlign=middle;spacingLeft=4;spacingRight=4;overflow=hidden;points=[[0,0.5],[1,0.5]];portConstraint=eastwest;rotatable=0;whiteSpace=wrap;html=1;fontStyle=0;fontSize=15;fontFamily=Times New Roman;" vertex="1" parent="K8a-S57NC9AnjyNX4csb-41">
          <mxGeometry y="90" width="140" height="30" as="geometry" />
        </mxCell>
        <mxCell id="K8a-S57NC9AnjyNX4csb-45" value="date" style="text;strokeColor=none;fillColor=default;align=left;verticalAlign=middle;spacingLeft=4;spacingRight=4;overflow=hidden;points=[[0,0.5],[1,0.5]];portConstraint=eastwest;rotatable=0;whiteSpace=wrap;html=1;fontStyle=0;fontSize=15;fontFamily=Times New Roman;" vertex="1" parent="K8a-S57NC9AnjyNX4csb-41">
          <mxGeometry y="120" width="140" height="30" as="geometry" />
        </mxCell>
        <mxCell id="K8a-S57NC9AnjyNX4csb-65" value="rating" style="text;strokeColor=none;fillColor=default;align=left;verticalAlign=middle;spacingLeft=4;spacingRight=4;overflow=hidden;points=[[0,0.5],[1,0.5]];portConstraint=eastwest;rotatable=0;whiteSpace=wrap;html=1;fontStyle=0;fontSize=15;fontFamily=Times New Roman;" vertex="1" parent="K8a-S57NC9AnjyNX4csb-41">
          <mxGeometry y="150" width="140" height="30" as="geometry" />
        </mxCell>
        <mxCell id="K8a-S57NC9AnjyNX4csb-66" style="edgeStyle=orthogonalEdgeStyle;rounded=0;orthogonalLoop=1;jettySize=auto;html=1;exitX=0;exitY=0.5;exitDx=0;exitDy=0;entryX=0;entryY=0.5;entryDx=0;entryDy=0;" edge="1" parent="1" source="K8a-S57NC9AnjyNX4csb-17" target="K8a-S57NC9AnjyNX4csb-4">
          <mxGeometry relative="1" as="geometry" />
        </mxCell>
        <mxCell id="K8a-S57NC9AnjyNX4csb-67" style="edgeStyle=orthogonalEdgeStyle;rounded=0;orthogonalLoop=1;jettySize=auto;html=1;exitX=1;exitY=0.5;exitDx=0;exitDy=0;entryX=0;entryY=0.5;entryDx=0;entryDy=0;" edge="1" parent="1" source="K8a-S57NC9AnjyNX4csb-5" target="K8a-S57NC9AnjyNX4csb-23">
          <mxGeometry relative="1" as="geometry">
            <Array as="points">
              <mxPoint x="570" y="295" />
              <mxPoint x="570" y="345" />
            </Array>
          </mxGeometry>
        </mxCell>
        <mxCell id="K8a-S57NC9AnjyNX4csb-68" style="edgeStyle=orthogonalEdgeStyle;rounded=0;orthogonalLoop=1;jettySize=auto;html=1;exitX=1;exitY=0.5;exitDx=0;exitDy=0;entryX=0;entryY=0.5;entryDx=0;entryDy=0;" edge="1" parent="1" source="K8a-S57NC9AnjyNX4csb-5" target="K8a-S57NC9AnjyNX4csb-24">
          <mxGeometry relative="1" as="geometry">
            <Array as="points">
              <mxPoint x="570" y="295" />
              <mxPoint x="570" y="375" />
            </Array>
          </mxGeometry>
        </mxCell>
        <mxCell id="K8a-S57NC9AnjyNX4csb-69" style="edgeStyle=orthogonalEdgeStyle;rounded=0;orthogonalLoop=1;jettySize=auto;html=1;exitX=0;exitY=0.5;exitDx=0;exitDy=0;entryX=1;entryY=0.5;entryDx=0;entryDy=0;" edge="1" parent="1" source="K8a-S57NC9AnjyNX4csb-5" target="K8a-S57NC9AnjyNX4csb-27">
          <mxGeometry relative="1" as="geometry" />
        </mxCell>
        <mxCell id="K8a-S57NC9AnjyNX4csb-73" style="edgeStyle=orthogonalEdgeStyle;rounded=0;orthogonalLoop=1;jettySize=auto;html=1;exitX=0;exitY=0.5;exitDx=0;exitDy=0;entryX=1;entryY=0.5;entryDx=0;entryDy=0;" edge="1" parent="1" source="K8a-S57NC9AnjyNX4csb-5" target="K8a-S57NC9AnjyNX4csb-32">
          <mxGeometry relative="1" as="geometry" />
        </mxCell>
        <mxCell id="K8a-S57NC9AnjyNX4csb-74" style="edgeStyle=orthogonalEdgeStyle;rounded=0;orthogonalLoop=1;jettySize=auto;html=1;exitX=0;exitY=0.5;exitDx=0;exitDy=0;entryX=1;entryY=0.5;entryDx=0;entryDy=0;" edge="1" parent="1" source="K8a-S57NC9AnjyNX4csb-5" target="K8a-S57NC9AnjyNX4csb-37">
          <mxGeometry relative="1" as="geometry" />
        </mxCell>
        <mxCell id="K8a-S57NC9AnjyNX4csb-75" style="edgeStyle=orthogonalEdgeStyle;rounded=0;orthogonalLoop=1;jettySize=auto;html=1;exitX=0;exitY=0.5;exitDx=0;exitDy=0;entryX=0;entryY=0.5;entryDx=0;entryDy=0;" edge="1" parent="1" source="K8a-S57NC9AnjyNX4csb-64" target="K8a-S57NC9AnjyNX4csb-38">
          <mxGeometry relative="1" as="geometry" />
        </mxCell>
        <mxCell id="K8a-S57NC9AnjyNX4csb-76" style="edgeStyle=orthogonalEdgeStyle;rounded=0;orthogonalLoop=1;jettySize=auto;html=1;exitX=0;exitY=0.5;exitDx=0;exitDy=0;entryX=0;entryY=0.5;entryDx=0;entryDy=0;" edge="1" parent="1" source="K8a-S57NC9AnjyNX4csb-64" target="K8a-S57NC9AnjyNX4csb-28">
          <mxGeometry relative="1" as="geometry" />
        </mxCell>
        <mxCell id="K8a-S57NC9AnjyNX4csb-77" style="edgeStyle=orthogonalEdgeStyle;rounded=0;orthogonalLoop=1;jettySize=auto;html=1;exitX=0;exitY=0.5;exitDx=0;exitDy=0;entryX=0;entryY=0.5;entryDx=0;entryDy=0;" edge="1" parent="1" source="K8a-S57NC9AnjyNX4csb-5" target="K8a-S57NC9AnjyNX4csb-43">
          <mxGeometry relative="1" as="geometry" />
        </mxCell>
        <mxCell id="K8a-S57NC9AnjyNX4csb-78" style="edgeStyle=orthogonalEdgeStyle;rounded=0;orthogonalLoop=1;jettySize=auto;html=1;exitX=0;exitY=0.5;exitDx=0;exitDy=0;entryX=0;entryY=0.5;entryDx=0;entryDy=0;" edge="1" parent="1" source="K8a-S57NC9AnjyNX4csb-5" target="K8a-S57NC9AnjyNX4csb-44">
          <mxGeometry relative="1" as="geometry" />
        </mxCell>
      </root>
    </mxGraphModel>
  </diagram>
</mxfile>
